<svg id="Layer_1" data-name="Layer 1" xmlns="http://www.w3.org/2000/svg" viewBox="0 0 141.7 141.7"><defs><style>.cls-1{fill:none;stroke:#000;stroke-miterlimit:10;stroke-width:0.75px;}</style></defs><title>Artboard 2</title><path class="cls-1" d="M52.2,53.9c1.9-1.5,3.2-1.9,4.3-1.7,1.9.2,2.6,1.5,4.3,1.5a5.12,5.12,0,0,0,3-1.1,4.49,4.49,0,0,1,1.9-.4c1.9,0,2.6,1.3,4.5,1.5s2.3-1.3,4.5-1.3,2.6,1.3,4.7,1.3,2.8-1.3,4.7-1.3a6.35,6.35,0,0,1,3.8,1.5"/><path class="cls-1" d="M55.2,66a5.34,5.34,0,0,1,3.4-1.5c1.5,0,2.1,1.3,3.6,1.3a2.9,2.9,0,0,0,2.3-.9,2.7,2.7,0,0,1,1.5-.4c1.7,0,2.1,1.1,3.6,1.3,1.7,0,2.1-1.1,3.8-1.1s2.1,1.1,4.1,1.1c1.7,0,2.3-1.1,4.1-1.1A5.12,5.12,0,0,1,84.8,66"/><path class="cls-1" d="M52,78c1.9-1.5,3.2-1.9,4.3-1.7,1.9.2,2.6,1.5,4.3,1.5a5.12,5.12,0,0,0,3-1.1,4.49,4.49,0,0,1,1.9-.4c1.9,0,2.6,1.3,4.5,1.5s2.3-1.3,4.5-1.3,2.6,1.3,4.7,1.3,2.8-1.3,4.7-1.3A6.35,6.35,0,0,1,87.7,78"/></svg>