<svg id="Layer_1" data-name="Layer 1" xmlns="http://www.w3.org/2000/svg" viewBox="0 0 141.7 141.7"><defs><style>.cls-1{fill:none;stroke:#000;stroke-miterlimit:10;stroke-width:0.75px;}</style></defs><title>Artboard 7</title><path class="cls-1" d="M74.51,52H83c.2,0,.2,0,.4.2,6,6,11.7,12.2,17.7,18.1a4.57,4.57,0,0,1-.6,6.2,4,4,0,0,1-4.9,0q-7-5.7-14.1-11.1c-.2-.2-.9,0-.9.4l-.9,46.3a.43.43,0,0,1-.4.4c-4.7,0-9.2,0-13.9-.2a.43.43,0,0,1-.4-.4l-1.3-46.3c.2,5.3.2,10.5.4,15.8.2,3-2.1,5.1-4.3,4.9A4.2,4.2,0,0,1,56,83.1V59.4a7.64,7.64,0,0,1,2.3-5.5A7.52,7.52,0,0,1,63,52Z"/><ellipse class="cls-1" cx="71.51" cy="39.6" rx="6.6" ry="7"/></svg>