<svg id="Layer_1" data-name="Layer 1" xmlns="http://www.w3.org/2000/svg" viewBox="0 0 141.7 141.7"><defs><style>.cls-1{fill:none;stroke:#000;stroke-miterlimit:10;stroke-width:0.75px;}</style></defs><title>Artboard 2</title><path class="cls-1" d="M42,100.18H28.84V70.28H42v29.9Z"/><path class="cls-1" d="M42,72.78c8.8-4.9,13.2-4.5,15.8-3,1.3.6,2.8,1.7,6.2,3.8a32.28,32.28,0,0,0,5.5,2.6c4.1,1.3,6,.2,11.3.4,5.1.2,7,.4,8.8,1.3,3.2,1.3,4.3,2.8,4.7,3.4.2.4,1.7,2.8.9,4.9-.9,2.3-3.6,3.2-6,3.6a21.81,21.81,0,0,1-10.5,0,56.12,56.12,0,0,1-8.1-2.3"/><path class="cls-1" d="M94.54,81.38c.9,0,1.7-.2,2.8-.2a7.31,7.31,0,0,0,3-.6l20.1-10a9.5,9.5,0,0,1,3.4-.9,25.63,25.63,0,0,1,4.9.6,12.67,12.67,0,0,1,5.1,2.6l-29,16.6L86,99.28a10.79,10.79,0,0,1-3.6,1.1l-5.3.4a8.13,8.13,0,0,1-3.8-.4l-13.2-4.3a6.15,6.15,0,0,0-1.9-.2l-14.5,2.6a1.22,1.22,0,0,1-1.3-1.1V73.48"/></svg>