<svg id="Layer_1" data-name="Layer 1" xmlns="http://www.w3.org/2000/svg" viewBox="0 0 141.7 141.7"><defs><style>.cls-1{fill:none;}.cls-1,.cls-2{stroke:#000;stroke-miterlimit:10;stroke-width:0.75px;}</style></defs><title>Artboard 9</title><path class="cls-1" d="M101,91.2a28.22,28.22,0,0,1,1.7-9.2,45.11,45.11,0,0,1,4.3-8.8c.4-6,1.1-12,1.5-18.1A361.72,361.72,0,0,1,70.3,70.3c-7.3,2.3-14.1,4.5-20.9,6.2-6,1.5-11.7,2.8-17.3,4.1-.4,3.8-.9,7.9-1.3,11.7"/><circle class="cls-2" cx="93.7" cy="72" r="1.9"/><path class="cls-1" d="M49.3,75.6s-.4-15.4,0-16.2l.4-.9L73.8,46.3H93.6V62.5"/><polyline class="cls-1" points="37.4 77.4 37.4 51.1 32.1 51.1 32.1 41.1 37.4 35.7 62.6 35.7 67.1 42.4 67.1 50"/><circle class="cls-2" cx="43.2" cy="44.3" r="1.7"/><circle class="cls-2" cx="56.6" cy="44.3" r="1.7"/></svg>