<svg id="Layer_1" data-name="Layer 1" xmlns="http://www.w3.org/2000/svg" viewBox="0 0 141.7 141.7"><defs><style>.cls-1{fill:none;stroke:#000;stroke-miterlimit:10;stroke-width:0.75px;}</style></defs><title>Artboard 6</title><path class="cls-1" d="M68.36,69l30.7-16.9a.75.75,0,0,1,1.1.6v41c0,.2-.2.4-.4.6l-30.7,16.2a.75.75,0,0,1-1.1-.6V69.7C68,69.2,68.16,69,68.36,69Z"/><path class="cls-1" d="M68.16,69,37.26,52.1a.75.75,0,0,0-1.1.6v41c0,.2.2.4.4.6l30.7,16.2a.75.75,0,0,0,1.1-.6V69.7C68.36,69.2,68.36,69,68.16,69Z"/><path class="cls-1" d="M100,52c-10.5,5.5-21.1,11.3-31.6,16.9a.37.37,0,0,1-.6,0c-10.2-5.5-20.7-11.1-30.9-16.6a.58.58,0,0,1-.2-.9.2.2,0,0,1,.2-.2c.4-.2,12.8-7,29.5-16.6H67c18.8,9.4,32.7,16.2,33.1,16.4C100,50.7,101,51.5,100,52Z"/></svg>