<svg id="Layer_1" data-name="Layer 1" xmlns="http://www.w3.org/2000/svg" viewBox="0 0 141.7 141.7"><defs><style>.cls-1{fill:none;stroke:#000;stroke-miterlimit:10;stroke-width:0.75px;}</style></defs><title>Artboard 4</title><path class="cls-1" d="M77.5,55.78c4.7-4.3,9.4-8.5,13.9-13a5.25,5.25,0,0,1,3.4-1.5h1.5a5.27,5.27,0,0,1,5.1,6.4h0a5.48,5.48,0,0,1-1.1,2.3L82.8,70.08l-9,8.1L62.1,88.88c.4,5.1.6,10.2,1.1,15.6-2.1.6-1.7.4-4.1,1.1-1.9-3.6-4.1-7.5-6-11.1-4.1-2.6-8.3-5.3-12.4-7.9.9-2.6.9-2.3,1.7-4.9l14.1,1.1L67,67.88,41.8,49.08c2.3-4.1,1.5-2.8,3.8-6.8C56.4,46.78,66.8,51.28,77.5,55.78Z"/><path class="cls-1" d="M75,77.28c2.8,3.8,5.8,7.9,8.5,11.7l10.2,14.5,5.5-5.3c-2.6-7.3-4.9-14.7-7.5-22-1.3-3.8-2.8-7.9-4.1-11.7-1.7,1.9-3.4,3.8-5.3,6A74.67,74.67,0,0,1,75,77.28Z"/></svg>