<svg id="Layer_1" data-name="Layer 1" xmlns="http://www.w3.org/2000/svg" viewBox="0 0 141.7 141.7"><defs><style>.cls-1,.cls-2{fill:none;stroke:#000;stroke-miterlimit:10;}.cls-1{stroke-width:0.75px;}.cls-2{stroke-width:0.5px;}</style></defs><title>Artboard 8</title><path class="cls-1" d="M102.64,70.1a31.88,31.88,0,0,1-31.8,31.8c-12.8,0-21.6-8.3-22.6-9.6-1.3-1.3-9.4-9.8-9-22.2C39.64,55.4,52,38.3,71,38.3A31.84,31.84,0,0,1,102.64,70.1Z"/><path class="cls-2" d="M42.84,54.9a5.71,5.71,0,0,1,3.8-1.7,2.9,2.9,0,0,1,2.3.9,7,7,0,0,1,6.8-2.6,4.91,4.91,0,0,1,3.2,2.6,6.6,6.6,0,0,1,.9,3.8,6.48,6.48,0,0,1-2.6,4.5c-1.3.4-2.3.9-3.4,1.3a5.73,5.73,0,0,1,.6,2.6,6.49,6.49,0,0,1-1.1,2.6A4.75,4.75,0,0,1,49,70.4a4.18,4.18,0,0,1-2.3-1.7c-.9-3.2-1.3-4.1-1.5-4.1-.4,0,.2,3.6-1.5,4.7a2.65,2.65,0,0,1-1.7.2,4.59,4.59,0,0,1-2.6-.9c0-1.1.2-2.1.2-3.2a40.62,40.62,0,0,1,1.7-5.8A21.69,21.69,0,0,1,42.84,54.9Z"/><path class="cls-1" d="M49.24,93.4a11.2,11.2,0,0,1,3-5.3,13.61,13.61,0,0,1,4.9-3.2,14.49,14.49,0,0,1,6,0,14.34,14.34,0,0,1,4.5,1.9h0c.6,1.1,1.3,2.1,1.9,3.2A19.1,19.1,0,0,1,71,92.8a28.39,28.39,0,0,1,6-1.9,13.28,13.28,0,0,1,2.6-.2,16.17,16.17,0,0,1,3,.2c1.7.6,1.9,1.5,3.2,1.5s1.7-.9,3.2-1.1a9.76,9.76,0,0,1,2.8.6l1.3,1.1"/><ellipse class="cls-2" cx="91.54" cy="82.7" rx="2.1" ry="3"/><circle class="cls-2" cx="66.14" cy="50" r="1.5"/><ellipse class="cls-2" cx="57.94" cy="76.5" rx="1.7" ry="3"/></svg>