<svg id="Layer_1" data-name="Layer 1" xmlns="http://www.w3.org/2000/svg" viewBox="0 0 141.7 141.7"><defs><style>.cls-1{fill:none;stroke:#000;stroke-miterlimit:10;stroke-width:0.75px;}</style></defs><title>Artboard 5</title><path class="cls-1" d="M80.1,85.18l29.9-8.5c.4-.2,1.1,0,1.1.2v20.9c0,.2-.2.2-.4.2l-29.9,8.3c-.4.2-1.1,0-1.1-.2V85.58C79.9,85.38,80.1,85.38,80.1,85.18Z"/><path class="cls-1" d="M79.9,85.18,50,76.68c-.4-.2-1.1,0-1.1.2v20.9c0,.2.2.2.4.2l29.9,8.3c.4.2,1.1,0,1.1-.2V85.58C80.4,85.38,80.1,85.38,79.9,85.18Z"/><path class="cls-1" d="M110.9,76.68c-10.2,2.8-20.3,5.8-30.5,8.5h-.6c-10-2.8-20.1-5.8-30.1-8.5-.4-.2-.4-.4-.2-.4a.2.2,0,0,1,.2-.2c.4-.2,12.4-3.6,28.6-8.5h.6c18.1,4.7,31.6,8.3,32,8.3C110.9,76.08,111.9,76.48,110.9,76.68Z"/></svg>