<svg id="Layer_1" data-name="Layer 1" xmlns="http://www.w3.org/2000/svg" viewBox="0 0 141.7 141.7"><defs><style>.cls-1{fill:none;stroke:#000;stroke-miterlimit:10;stroke-width:0.75px;}</style></defs><title>Artboard 6</title><path class="cls-1" d="M96.44,98.5l10-5.5c.2,0,.2,0,.2.2v13.4a.2.2,0,0,1-.2.2l-10,5.3c-.2,0-.2,0-.2-.2l.2-13.4Z"/><path class="cls-1" d="M96.44,98.5l-10-5.5c-.2,0-.2,0-.2.2v13.4a.2.2,0,0,0,.2.2l10,5.3c.2,0,.2,0,.2-.2l-.2-13.4Z"/><path class="cls-1" d="M106.74,92.9c-3.4,1.9-6.8,3.6-10.2,5.5h-.2c-3.4-1.9-6.8-3.6-10-5.5a.2.2,0,0,1-.2-.2l.2-.2c.2,0,4.1-2.3,9.6-5.3h.2c6.2,3,10.7,5.3,10.9,5.3C106.74,92.5,107.14,92.7,106.74,92.9Z"/></svg>