<svg id="Layer_1" data-name="Layer 1" xmlns="http://www.w3.org/2000/svg" viewBox="0 0 141.7 141.7"><defs><style>.cls-1{fill:none;stroke:#000;stroke-miterlimit:10;stroke-width:0.75px;}</style></defs><title>Artboard 3</title><path class="cls-1" d="M84.4,70.3a2.43,2.43,0,0,1-4.1,0,83.38,83.38,0,0,1-6.4-9.8,110,110,0,0,1-6.2-13.9,17.3,17.3,0,0,1,2.6-14.3A17.41,17.41,0,0,1,82,25.7h.4A15,15,0,0,1,93.1,31c5.1,6,3.6,13.7,3.2,14.7V46a82.21,82.21,0,0,1-5.1,13A55.2,55.2,0,0,1,84.4,70.3Z"/><circle class="cls-1" cx="82" cy="41.1" r="8.8"/></svg>