<svg id="Layer_1" data-name="Layer 1" xmlns="http://www.w3.org/2000/svg" viewBox="0 0 141.7 141.7"><defs><style>.cls-1{fill:none;stroke:#000;stroke-miterlimit:10;stroke-width:0.75px;}</style></defs><title>Artboard 1</title><path class="cls-1" d="M26.9,96.8c4.3-6.2,7.5-7.3,9.6-7,4.3.4,5.8,6,10,6.2,2.8,0,5.1-2.3,6.8-4.5a6,6,0,0,1,4.3-1.9c4.5-.2,6,5.5,10.2,5.8,4.5.4,5.5-5.3,10.5-5.3s6,5.5,10.9,5.5,6.4-5.3,11.1-5.3c3.6,0,6.8,3.2,8.8,6.2"/><path class="cls-1" d="M26.7,104.7c4.3-6.2,7.5-7.3,9.6-7,4.3.4,5.8,6,10,6.2,2.8,0,5.1-2.3,6.8-4.5a6,6,0,0,1,4.3-1.9c4.5-.2,6,5.5,10.2,5.8,4.5.4,5.5-5.3,10.5-5.3s6,5.5,10.9,5.5,6.4-5.3,11.1-5.3c3.6,0,6.8,3.2,8.8,6.2"/></svg>