<svg id="Layer_1" data-name="Layer 1" xmlns="http://www.w3.org/2000/svg" viewBox="0 0 141.7 141.7"><defs><style>.cls-1{fill:none;stroke:#000;stroke-miterlimit:10;stroke-width:0.75px;}</style></defs><title>Artboard 10</title><path class="cls-1" d="M46.4,39.8a10.7,10.7,0,0,1,4.3-4.9C55,32.1,61.8,33,73.3,33c7.9.2,12.2,0,23.3.2h2.3c-1.3.9-2.8,1.9-3.4,3.6a6.52,6.52,0,0,0-.6,3V95.7a17.8,17.8,0,0,1-.6,3.8,5.77,5.77,0,0,1-1.9,2.6,8.2,8.2,0,0,1-4.3,1.7A8.78,8.78,0,0,1,80,99.3,9.45,9.45,0,0,1,78.9,94l-33.3-.4c.2-16.9.2-33.5.4-50.4A12.87,12.87,0,0,1,46.4,39.8Z"/><path class="cls-1" d="M96.4,35.7a5.8,5.8,0,0,1,3.8-2.3c3.2-.4,6.8,2.3,8.1,7.3,0,5.1,0,10,.2,15.2H97.2"/><path class="cls-1" d="M37.5,94c13.7.2,27.1.2,40.8.2h.9v2.1a6,6,0,0,0,1.1,3.2,9,9,0,0,0,2.6,2.8c.2.2.4.2.6.4a4.85,4.85,0,0,0,1.5.6c1.7.6,6-.2,6,0a4.76,4.76,0,0,1-1.5.6c-2.8.2-6.2.2-10.5.4-4.1.2-10.2.2-17.9.2-6.8-.2-13.2-.4-19.2-.9a4.79,4.79,0,0,1-1.5-1.1,7.83,7.83,0,0,1-2.3-2.8,7.23,7.23,0,0,1-.9-3.2A2,2,0,0,1,37.5,94Z"/></svg>