<svg id="Layer_1" data-name="Layer 1" xmlns="http://www.w3.org/2000/svg" viewBox="0 0 141.7 141.7"><defs><style>.cls-1{fill:none;}.cls-1,.cls-2{stroke:#000;stroke-miterlimit:10;stroke-width:0.75px;}</style></defs><title>Artboard 3</title><path class="cls-1" d="M92.9,46.58H48.1a9.09,9.09,0,0,0-9,9v44.8a9.09,9.09,0,0,0,9,9H92.9a9.09,9.09,0,0,0,9-9V55.58A8.9,8.9,0,0,0,92.9,46.58Z"/><line class="cls-1" x1="39.1" y1="62.78" x2="101.9" y2="62.78"/><path class="cls-2" d="M56.2,54.48h0A1.59,1.59,0,0,0,57.9,53V39.28a1.42,1.42,0,0,0-1.5-1.5h-.2a1.42,1.42,0,0,0-1.5,1.5V53A1.42,1.42,0,0,0,56.2,54.48Z"/><path class="cls-2" d="M85.4,54.68h0a1.59,1.59,0,0,0,1.7-1.5V39.48A1.42,1.42,0,0,0,85.6,38h-.2a1.42,1.42,0,0,0-1.5,1.5v13.7A1.47,1.47,0,0,0,85.4,54.68Z"/><circle class="cls-2" cx="64.1" cy="75.38" r="2.1"/><circle class="cls-2" cx="79.5" cy="75.38" r="2.1"/><circle class="cls-2" cx="50.2" cy="75.38" r="2.1"/><circle class="cls-2" cx="93.1" cy="75.38" r="2.1"/><circle class="cls-2" cx="64.3" cy="93.58" r="2.1"/><circle class="cls-2" cx="79.9" cy="93.58" r="2.1"/><circle class="cls-2" cx="50.4" cy="93.58" r="2.1"/><circle class="cls-2" cx="93.5" cy="93.58" r="2.1"/></svg>